{"accessors" : [{"bufferView" : 0, "byteOffset" : 0, "componentType" : 5123, "count" : 432, "type" : "SCALAR", "max" : [395], "min" : [0]}, {"bufferView" : 1, "byteOffset" : 0, "componentType" : 5126, "count" : 396, "type" : "VEC3", "max" : [0.20000000298023224, -0.19616399705410004, -0.9212949872016907], "min" : [-0.20000000298023224, -1.7302789688110352, -2.455409049987793], "name" : "POSITION"}, {"bufferView" : 1, "byteOffset" : 12, "componentType" : 5126, "count" : 396, "type" : "VEC2", "max" : [1, -0], "min" : [0, -1], "name" : "TEXCOORD_0"}, {"bufferView" : 0, "byteOffset" : 864, "componentType" : 5123, "count" : 36, "type" : "SCALAR", "max" : [28], "min" : [0]}, {"bufferView" : 2, "byteOffset" : 0, "componentType" : 5126, "count" : 29, "type" : "VEC3", "max" : [0.09264799952507019, -0.41870400309562683, -1.2557120323181152], "min" : [-0.09264799952507019, -2.888118028640747, -3.789033889770508], "name" : "POSITION"}, {"bufferView" : 2, "byteOffset" : 12, "componentType" : 5126, "count" : 29, "type" : "VEC2", "max" : [1, -0], "min" : [0, -1], "name" : "TEXCOORD_0"}, {"bufferView" : 0, "byteOffset" : 936, "componentType" : 5123, "count" : 36, "type" : "SCALAR", "max" : [28], "min" : [0]}, {"bufferView" : 3, "byteOffset" : 0, "componentType" : 5126, "count" : 29, "type" : "VEC3", "max" : [0.1982879936695099, -2.0291640758514404, -2.9467079639434814], "min" : [-0.1982879936695099, -3.3131558895111084, -4.227427959442139], "name" : "POSITION"}, {"bufferView" : 3, "byteOffset" : 12, "componentType" : 5126, "count" : 29, "type" : "VEC2", "max" : [1, -0], "min" : [0, -1], "name" : "TEXCOORD_0"}, {"bufferView" : 0, "byteOffset" : 1008, "componentType" : 5123, "count" : 1596, "type" : "SCALAR", "max" : [1335], "min" : [0]}, {"bufferView" : 4, "byteOffset" : 0, "componentType" : 5126, "count" : 1336, "type" : "VEC3", "max" : [1.1364200115203857, 1.4832559823989868, 3.1195731163024902], "min" : [-1.1364200115203857, -0.9684450030326843, -2.931960105895996], "name" : "POSITION"}, {"bufferView" : 4, "byteOffset" : 12, "componentType" : 5126, "count" : 1336, "type" : "VEC2", "max" : [1, -0], "min" : [0, -1], "name" : "TEXCOORD_0"}], "asset" : {"generator" : "Aspose.3D 23.2", "version" : "2.0"}, "buffers" : [{"uri" : "data:application/octet-stream;base64,", "byteLength" : 46220}], "bufferViews" : [{"buffer" : 0, "byteOffset" : 0, "byteLength" : 4200, "target" : 34963}, {"buffer" : 0, "byteOffset" : 4204, "byteLength" : 8640, "byteStride" : 20, "target" : 34962}, {"buffer" : 0, "byteOffset" : 12848, "byteLength" : 720, "byteStride" : 20, "target" : 34962}, {"buffer" : 0, "byteOffset" : 13572, "byteLength" : 720, "byteStride" : 20, "target" : 34962}, {"buffer" : 0, "byteOffset" : 14296, "byteLength" : 31920, "byteStride" : 20, "target" : 34962}], "meshes" : [{"primitives" : [{"attributes" : {"POSITION" : 1, "TEXCOORD_0" : 2}, "indices" : 0, "mode" : 4}], "name" : ""}, {"primitives" : [{"attributes" : {"POSITION" : 4, "TEXCOORD_0" : 5}, "indices" : 3, "mode" : 4}], "name" : ""}, {"primitives" : [{"attributes" : {"POSITION" : 7, "TEXCOORD_0" : 8}, "indices" : 6, "mode" : 4}], "name" : ""}, {"primitives" : [{"attributes" : {"POSITION" : 10, "TEXCOORD_0" : 11}, "indices" : 9, "mode" : 4}], "name" : ""}], "nodes" : [{"mesh" : 0, "name" : "bras Cylindre"}, {"mesh" : 1, "name" : "bras Cube"}, {"mesh" : 2, "name" : "bras Cube_1"}, {"mesh" : 3, "name" : "camera1"}], "scene" : 0, "scenes" : [{"nodes" : [0, 1, 2, 3]}]}