{"accessors" : [{"bufferView" : 0, "byteOffset" : 0, "componentType" : 5123, "count" : 31164, "type" : "SCALAR", "max" : [31163], "min" : [0]}, {"bufferView" : 1, "byteOffset" : 0, "componentType" : 5126, "count" : 31164, "type" : "VEC3", "max" : [0.34150001406669617, 19.247100830078125, 3.428800106048584], "min" : [-5.475800037384033, 10.550000190734863, -1.5857000350952148], "name" : "POSITION"}, {"bufferView" : 1, "byteOffset" : 12, "componentType" : 5126, "count" : 31164, "type" : "VEC3", "max" : [0.9996153712272644, 1.0000044107437134, 0.997452437877655], "min" : [-0.9990186095237732, -1.0000044107437134, -0.9950821399688721], "name" : "NORMAL"}, {"bufferView" : 1, "byteOffset" : 24, "componentType" : 5126, "count" : 31164, "type" : "VEC2", "max" : [0.9994999766349792, -0.0005000000237487257], "min" : [0.0005000000237487257, -0.9947999715805054], "name" : "TEXCOORD_0"}, {"bufferView" : 0, "byteOffset" : 62328, "componentType" : 5123, "count" : 31164, "type" : "SCALAR", "max" : [31163], "min" : [0]}, {"bufferView" : 2, "byteOffset" : 0, "componentType" : 5126, "count" : 31164, "type" : "VEC3", "max" : [-0.9513999819755554, 19.247100830078125, 1.5823999643325806], "min" : [-6.768700122833252, 10.550000190734863, -3.4321000576019287], "name" : "POSITION"}, {"bufferView" : 2, "byteOffset" : 12, "componentType" : 5126, "count" : 31164, "type" : "VEC3", "max" : [0.9990186095237732, 1.0000044107437134, 0.9950821399688721], "min" : [-0.9996153712272644, -1.0000044107437134, -0.9974448084831238], "name" : "NORMAL"}, {"bufferView" : 2, "byteOffset" : 24, "componentType" : 5126, "count" : 31164, "type" : "VEC2", "max" : [0.9994999766349792, -0.0005000000237487257], "min" : [0.0005000000237487257, -0.9947999715805054], "name" : "TEXCOORD_0"}, {"bufferView" : 0, "byteOffset" : 124656, "componentType" : 5123, "count" : 1680, "type" : "SCALAR", "max" : [1679], "min" : [0]}, {"bufferView" : 3, "byteOffset" : 0, "componentType" : 5126, "count" : 1680, "type" : "VEC3", "max" : [-0.10429999977350235, 8.899999618530273, 3.1092000007629395], "min" : [-6.315499782562256, -0, -3.101900100708008], "name" : "POSITION"}, {"bufferView" : 3, "byteOffset" : 12, "componentType" : 5126, "count" : 1680, "type" : "VEC3", "max" : [0.9848200678825378, 1.0000044107437134, 0.9848200678825378], "min" : [-0.9848200678825378, -1.0000044107437134, -0.9848200678825378], "name" : "NORMAL"}, {"bufferView" : 3, "byteOffset" : 24, "componentType" : 5126, "count" : 1680, "type" : "VEC2", "max" : [0.9962999820709229, -0.0005000000237487257], "min" : [0.0005000000237487257, -0.9994999766349792], "name" : "TEXCOORD_0"}, {"bufferView" : 0, "byteOffset" : 128016, "componentType" : 5123, "count" : 2325, "type" : "SCALAR", "max" : [2324], "min" : [0]}, {"bufferView" : 4, "byteOffset" : 0, "componentType" : 5126, "count" : 2325, "type" : "VEC3", "max" : [-0.39419999718666077, 15.136899948120117, 2.1396000385284424], "min" : [-6.025599956512451, 8.899999618530273, -2.1322999000549316], "name" : "POSITION"}, {"bufferView" : 4, "byteOffset" : 12, "componentType" : 5126, "count" : 2325, "type" : "VEC3", "max" : [0.9848200678825378, 1.0000044107437134, 0.9848200678825378], "min" : [-0.9848200678825378, -1.0000044107437134, -0.9848200678825378], "name" : "NORMAL"}, {"bufferView" : 4, "byteOffset" : 24, "componentType" : 5126, "count" : 2325, "type" : "VEC2", "max" : [0.08569999784231186, 3.2918999195098877], "min" : [-0.3792000114917755, -4.960700035095215], "name" : "TEXCOORD_0"}, {"bufferView" : 0, "byteOffset" : 132668, "componentType" : 5123, "count" : 1584, "type" : "SCALAR", "max" : [1583], "min" : [0]}, {"bufferView" : 5, "byteOffset" : 0, "componentType" : 5126, "count" : 1584, "type" : "VEC3", "max" : [0.19259999692440033, 19.09040069580078, 3.2769999504089355], "min" : [-6.624100208282471, 10.795599937438965, -3.2941999435424805], "name" : "POSITION"}, {"bufferView" : 5, "byteOffset" : 12, "componentType" : 5126, "count" : 1584, "type" : "VEC3", "max" : [0.9995314478874207, 1.000003695487976, 0.9506385922431946], "min" : [-0.9995527863502502, -0.9999215602874756, -0.9507758617401123], "name" : "NORMAL"}, {"bufferView" : 5, "byteOffset" : 24, "componentType" : 5126, "count" : 1584, "type" : "VEC2", "max" : [1.000100016593933, 0.0017999999690800905], "min" : [-9.999999747378752E-05, -1.0016000270843506], "name" : "TEXCOORD_0"}], "asset" : {"generator" : "Aspose.3D 23.4.0", "version" : "2.0"}, "buffers" : [{"uri" : "data:application/octet-stream;base64,", "byteLength" : 2309204}], "bufferViews" : [{"buffer" : 0, "byteOffset" : 0, "byteLength" : 135836, "target" : 34963}, {"buffer" : 0, "byteOffset" : 135840, "byteLength" : 997248, "byteStride" : 32, "target" : 34962}, {"buffer" : 0, "byteOffset" : 1133092, "byteLength" : 997248, "byteStride" : 32, "target" : 34962}, {"buffer" : 0, "byteOffset" : 2130344, "byteLength" : 53760, "byteStride" : 32, "target" : 34962}, {"buffer" : 0, "byteOffset" : 2184108, "byteLength" : 74400, "byteStride" : 32, "target" : 34962}, {"buffer" : 0, "byteOffset" : 2258512, "byteLength" : 50688, "byteStride" : 32, "target" : 34962}], "materials" : [{"name" : "lambert2", "pbrMetallicRoughness" : {"baseColorFactor" : [0.06700000166893005, 0.06700000166893005, 0.06700000166893005, 1], "metallicFactor" : 0, "roughnessFactor" : 0}, "emissiveFactor" : [0, 0, 0], "alphaMode" : "OPAQUE", "doubleSided" : false}, {"name" : "lambert2", "pbrMetallicRoughness" : {"baseColorFactor" : [0.06700000166893005, 0.06700000166893005, 0.06700000166893005, 1], "metallicFactor" : 0, "roughnessFactor" : 0}, "emissiveFactor" : [0, 0, 0], "alphaMode" : "OPAQUE", "doubleSided" : false}, {"name" : "lambert2", "pbrMetallicRoughness" : {"baseColorFactor" : [0.06700000166893005, 0.06700000166893005, 0.06700000166893005, 1], "metallicFactor" : 0, "roughnessFactor" : 0}, "emissiveFactor" : [0, 0, 0], "alphaMode" : "OPAQUE", "doubleSided" : false}, {"name" : "lambert2", "pbrMetallicRoughness" : {"baseColorFactor" : [0.06700000166893005, 0.06700000166893005, 0.06700000166893005, 1], "metallicFactor" : 0, "roughnessFactor" : 0}, "emissiveFactor" : [0, 0, 0], "alphaMode" : "OPAQUE", "doubleSided" : false}, {"name" : "lambert2", "pbrMetallicRoughness" : {"baseColorFactor" : [0.06700000166893005, 0.06700000166893005, 0.06700000166893005, 1], "metallicFactor" : 0, "roughnessFactor" : 0}, "emissiveFactor" : [0, 0, 0], "alphaMode" : "OPAQUE", "doubleSided" : false}], "meshes" : [{"primitives" : [{"attributes" : {"POSITION" : 1, "NORMAL" : 2, "TEXCOORD_0" : 3}, "indices" : 0, "material" : 0, "mode" : 4}], "name" : ""}, {"primitives" : [{"attributes" : {"POSITION" : 5, "NORMAL" : 6, "TEXCOORD_0" : 7}, "indices" : 4, "material" : 1, "mode" : 4}], "name" : ""}, {"primitives" : [{"attributes" : {"POSITION" : 9, "NORMAL" : 10, "TEXCOORD_0" : 11}, "indices" : 8, "material" : 2, "mode" : 4}], "name" : ""}, {"primitives" : [{"attributes" : {"POSITION" : 13, "NORMAL" : 14, "TEXCOORD_0" : 15}, "indices" : 12, "material" : 3, "mode" : 4}], "name" : ""}, {"primitives" : [{"attributes" : {"POSITION" : 17, "NORMAL" : 18, "TEXCOORD_0" : 19}, "indices" : 16, "material" : 4, "mode" : 4}], "name" : ""}], "nodes" : [{"mesh" : 0, "name" : "obj_01"}, {"mesh" : 1, "name" : "obj_02"}, {"mesh" : 2, "name" : "obj_03"}, {"mesh" : 3, "name" : "obj_04"}, {"mesh" : 4, "name" : "obj_05"}], "scene" : 0, "scenes" : [{"nodes" : [0, 1, 2, 3, 4]}]}