{"accessors" : [{"bufferView" : 0, "byteOffset" : 0, "componentType" : 5123, "count" : 48288, "type" : "SCALAR", "max" : [39053], "min" : [0]}, {"bufferView" : 1, "byteOffset" : 0, "componentType" : 5126, "count" : 39054, "type" : "VEC3", "max" : [7.301000118255615, 4.406199932098389, 4.303100109100342], "min" : [-4.880899906158447, -3.315999984741211, 0], "name" : "POSITION"}, {"bufferView" : 1, "byteOffset" : 12, "componentType" : 5126, "count" : 39054, "type" : "VEC2", "max" : [0.9918000102043152, -0.009999999776482582], "min" : [0.009999999776482582, -0.9896000027656555], "name" : "TEXCOORD_0"}, {"bufferView" : 1, "byteOffset" : 20, "componentType" : 5126, "count" : 39054, "type" : "VEC3", "max" : [1.0000044107437134, 1.0000044107437134, 1.0000044107437134], "min" : [-1.0000044107437134, -1.0000044107437134, -1.0000044107437134], "name" : "NORMAL"}], "asset" : {"generator" : "Aspose.3D 23.2", "version" : "2.0"}, "buffers" : [{"uri" : "data:application/octet-stream;base64,", "byteLength" : 1641800}], "bufferViews" : [{"buffer" : 0, "byteOffset" : 0, "byteLength" : 96576, "target" : 34963}, {"buffer" : 0, "byteOffset" : 96580, "byteLength" : 1545216, "byteStride" : 32, "target" : 34962}], "meshes" : [{"primitives" : [{"attributes" : {"POSITION" : 1, "TEXCOORD_0" : 2, "NORMAL" : 3}, "indices" : 0, "mode" : 4}], "name" : ""}], "nodes" : [{"mesh" : 0, "name" : "10106_Computer_Mouse_v1"}], "scene" : 0, "scenes" : [{"nodes" : [0]}]}