{"accessors" : [{"bufferView" : 0, "byteOffset" : 0, "componentType" : 5123, "count" : 3600, "type" : "SCALAR", "max" : [2999], "min" : [0]}, {"bufferView" : 1, "byteOffset" : 0, "componentType" : 5126, "count" : 3000, "type" : "VEC3", "max" : [29.886648178100586, 9.560898780822754, -0.18543599545955658], "min" : [-0.026007000356912613, 0, -19.95332908630371], "name" : "POSITION"}, {"bufferView" : 0, "byteOffset" : 7200, "componentType" : 5123, "count" : 648, "type" : "SCALAR", "max" : [505], "min" : [0]}, {"bufferView" : 2, "byteOffset" : 0, "componentType" : 5126, "count" : 506, "type" : "VEC3", "max" : [7.5897088050842285, 7.488348007202148, -14.66878890991211], "min" : [1.5002540349960327, 1.491405963897705, -20.400646209716797], "name" : "POSITION"}, {"bufferView" : 0, "byteOffset" : 8496, "componentType" : 5123, "count" : 648, "type" : "SCALAR", "max" : [505], "min" : [0]}, {"bufferView" : 3, "byteOffset" : 0, "componentType" : 5126, "count" : 506, "type" : "VEC3", "max" : [28.3475399017334, 0, -1.5940639972686768], "min" : [25.334192276000977, -0.27547499537467957, -4.56163215637207], "name" : "POSITION"}, {"bufferView" : 0, "byteOffset" : 9792, "componentType" : 5123, "count" : 1296, "type" : "SCALAR", "max" : [1029], "min" : [0]}, {"bufferView" : 4, "byteOffset" : 0, "componentType" : 5126, "count" : 1030, "type" : "VEC3", "max" : [28.3475399017334, -0.2848289906978607, -1.5940639972686768], "min" : [25.334192276000977, -2.780447006225586, -4.56163215637207], "name" : "POSITION"}, {"bufferView" : 0, "byteOffset" : 12384, "componentType" : 5123, "count" : 1296, "type" : "SCALAR", "max" : [1029], "min" : [0]}, {"bufferView" : 5, "byteOffset" : 0, "componentType" : 5126, "count" : 1030, "type" : "VEC3", "max" : [4.0525078773498535, -0.2848289906978607, -1.5940639972686768], "min" : [1.0391600131988525, -2.780447006225586, -4.56163215637207], "name" : "POSITION"}, {"bufferView" : 0, "byteOffset" : 14976, "componentType" : 5123, "count" : 648, "type" : "SCALAR", "max" : [505], "min" : [0]}, {"bufferView" : 6, "byteOffset" : 0, "componentType" : 5126, "count" : 506, "type" : "VEC3", "max" : [4.0525078773498535, 0, -1.5940639972686768], "min" : [1.0391600131988525, -0.27547499537467957, -4.56163215637207], "name" : "POSITION"}, {"bufferView" : 0, "byteOffset" : 16272, "componentType" : 5123, "count" : 648, "type" : "SCALAR", "max" : [505], "min" : [0]}, {"bufferView" : 7, "byteOffset" : 0, "componentType" : 5126, "count" : 506, "type" : "VEC3", "max" : [12.306262016296387, 0, -16.683788299560547], "min" : [9.292914390563965, -0.27547499537467957, -19.651355743408203], "name" : "POSITION"}, {"bufferView" : 0, "byteOffset" : 17568, "componentType" : 5123, "count" : 1296, "type" : "SCALAR", "max" : [1029], "min" : [0]}, {"bufferView" : 8, "byteOffset" : 0, "componentType" : 5126, "count" : 1030, "type" : "VEC3", "max" : [12.306262016296387, -0.2848289906978607, -16.683788299560547], "min" : [9.292914390563965, -2.780447006225586, -19.651355743408203], "name" : "POSITION"}, {"bufferView" : 0, "byteOffset" : 20160, "componentType" : 5123, "count" : 13008, "type" : "SCALAR", "max" : [10922], "min" : [0]}, {"bufferView" : 9, "byteOffset" : 0, "componentType" : 5126, "count" : 10923, "type" : "VEC3", "max" : [9.925729751586914, 7.035264015197754, 0.22455300390720367], "min" : [7.80977201461792, 5.831676006317139, -0.23494400084018707], "name" : "POSITION"}, {"bufferView" : 0, "byteOffset" : 46176, "componentType" : 5123, "count" : 13008, "type" : "SCALAR", "max" : [10922], "min" : [0]}, {"bufferView" : 10, "byteOffset" : 0, "componentType" : 5126, "count" : 10923, "type" : "VEC3", "max" : [20.075544357299805, 7.035264015197754, 0.22455300390720367], "min" : [17.9595890045166, 5.831676006317139, -0.23494400084018707], "name" : "POSITION"}, {"bufferView" : 0, "byteOffset" : 72192, "componentType" : 5123, "count" : 648, "type" : "SCALAR", "max" : [505], "min" : [0]}, {"bufferView" : 11, "byteOffset" : 0, "componentType" : 5126, "count" : 506, "type" : "VEC3", "max" : [14.618244171142578, 7.011021137237549, 0.4248420000076294], "min" : [13.5145263671875, 5.924069881439209, -0.3152489960193634], "name" : "POSITION"}], "asset" : {"generator" : "Aspose.3D 23.2", "version" : "2.0"}, "buffers" : [{"uri" : "data:application/octet-stream;base64,", "byteLength" : 514464}], "bufferViews" : [{"buffer" : 0, "byteOffset" : 0, "byteLength" : 73488, "target" : 34963}, {"buffer" : 0, "byteOffset" : 73492, "byteLength" : 43200, "byteStride" : 12, "target" : 34962}, {"buffer" : 0, "byteOffset" : 116696, "byteLength" : 7776, "byteStride" : 12, "target" : 34962}, {"buffer" : 0, "byteOffset" : 124476, "byteLength" : 7776, "byteStride" : 12, "target" : 34962}, {"buffer" : 0, "byteOffset" : 132256, "byteLength" : 15552, "byteStride" : 12, "target" : 34962}, {"buffer" : 0, "byteOffset" : 147812, "byteLength" : 15552, "byteStride" : 12, "target" : 34962}, {"buffer" : 0, "byteOffset" : 163368, "byteLength" : 7776, "byteStride" : 12, "target" : 34962}, {"buffer" : 0, "byteOffset" : 171148, "byteLength" : 7776, "byteStride" : 12, "target" : 34962}, {"buffer" : 0, "byteOffset" : 178928, "byteLength" : 15552, "byteStride" : 12, "target" : 34962}, {"buffer" : 0, "byteOffset" : 194484, "byteLength" : 156096, "byteStride" : 12, "target" : 34962}, {"buffer" : 0, "byteOffset" : 350584, "byteLength" : 156096, "byteStride" : 12, "target" : 34962}, {"buffer" : 0, "byteOffset" : 506684, "byteLength" : 7776, "byteStride" : 12, "target" : 34962}], "meshes" : [{"primitives" : [{"attributes" : {"POSITION" : 1}, "indices" : 0, "mode" : 4}], "name" : ""}, {"primitives" : [{"attributes" : {"POSITION" : 3}, "indices" : 2, "mode" : 4}], "name" : ""}, {"primitives" : [{"attributes" : {"POSITION" : 5}, "indices" : 4, "mode" : 4}], "name" : ""}, {"primitives" : [{"attributes" : {"POSITION" : 7}, "indices" : 6, "mode" : 4}], "name" : ""}, {"primitives" : [{"attributes" : {"POSITION" : 9}, "indices" : 8, "mode" : 4}], "name" : ""}, {"primitives" : [{"attributes" : {"POSITION" : 11}, "indices" : 10, "mode" : 4}], "name" : ""}, {"primitives" : [{"attributes" : {"POSITION" : 13}, "indices" : 12, "mode" : 4}], "name" : ""}, {"primitives" : [{"attributes" : {"POSITION" : 15}, "indices" : 14, "mode" : 4}], "name" : ""}, {"primitives" : [{"attributes" : {"POSITION" : 17}, "indices" : 16, "mode" : 4}], "name" : ""}, {"primitives" : [{"attributes" : {"POSITION" : 19}, "indices" : 18, "mode" : 4}], "name" : ""}, {"primitives" : [{"attributes" : {"POSITION" : 21}, "indices" : 20, "mode" : 4}], "name" : ""}], "nodes" : [{"mesh" : 0, "name" : "Box01"}, {"mesh" : 1, "name" : "Cylinder01"}, {"mesh" : 2, "name" : "Cylinder04"}, {"mesh" : 3, "name" : "Cylinder06"}, {"mesh" : 4, "name" : "Cylinder07"}, {"mesh" : 5, "name" : "Cylinder09"}, {"mesh" : 6, "name" : "Cylinder02"}, {"mesh" : 7, "name" : "Cylinder12"}, {"mesh" : 8, "name" : "Box02"}, {"mesh" : 9, "name" : "Box03"}, {"mesh" : 10, "name" : "Cylinder03"}], "scene" : 0, "scenes" : [{"nodes" : [0, 1, 2, 3, 4, 5, 6, 7, 8, 9, 10]}]}