{"accessors" : [{"bufferView" : 0, "byteOffset" : 0, "componentType" : 5123, "count" : 3600, "type" : "SCALAR", "max" : [3599], "min" : [0]}, {"bufferView" : 1, "byteOffset" : 0, "componentType" : 5126, "count" : 3600, "type" : "VEC3", "max" : [29.886648178100586, 9.560898780822754, -0.18543599545955658], "min" : [-0.026007000356912613, 0, -19.95332908630371], "name" : "POSITION"}, {"bufferView" : 1, "byteOffset" : 12, "componentType" : 5126, "count" : 3600, "type" : "VEC3", "max" : [1.0000044107437134, 1.0000044107437134, 1.0000044107437134], "min" : [-1.0000044107437134, -1.0000044107437134, -1.0000044107437134], "name" : "NORMAL"}, {"bufferView" : 1, "byteOffset" : 24, "componentType" : 5126, "count" : 3600, "type" : "VEC2", "max" : [1, -0], "min" : [0, -1], "name" : "TEXCOORD_0"}, {"bufferView" : 0, "byteOffset" : 7200, "componentType" : 5123, "count" : 648, "type" : "SCALAR", "max" : [647], "min" : [0]}, {"bufferView" : 2, "byteOffset" : 0, "componentType" : 5126, "count" : 648, "type" : "VEC3", "max" : [7.5897088050842285, 7.488348007202148, -14.66878890991211], "min" : [1.5002540349960327, 1.491405963897705, -20.400646209716797], "name" : "POSITION"}, {"bufferView" : 2, "byteOffset" : 12, "componentType" : 5126, "count" : 648, "type" : "VEC3", "max" : [1.0000044107437134, 0.9848122000694275, 1.0000044107437134], "min" : [-1.0000044107437134, -0.9848122000694275, -1.0000044107437134], "name" : "NORMAL"}, {"bufferView" : 2, "byteOffset" : 24, "componentType" : 5126, "count" : 648, "type" : "VEC2", "max" : [0.9722219705581665, -0], "min" : [-0.02777799963951111, -1], "name" : "TEXCOORD_0"}, {"bufferView" : 0, "byteOffset" : 8496, "componentType" : 5123, "count" : 648, "type" : "SCALAR", "max" : [647], "min" : [0]}, {"bufferView" : 3, "byteOffset" : 0, "componentType" : 5126, "count" : 648, "type" : "VEC3", "max" : [12.306262016296387, 0, -16.683788299560547], "min" : [9.292914390563965, -0.27547499537467957, -19.651355743408203], "name" : "POSITION"}, {"bufferView" : 3, "byteOffset" : 12, "componentType" : 5126, "count" : 648, "type" : "VEC3", "max" : [1.0000044107437134, 1.0000044107437134, 0.9848120808601379], "min" : [-1.0000044107437134, -1.0000044107437134, -0.9848124384880066], "name" : "NORMAL"}, {"bufferView" : 3, "byteOffset" : 24, "componentType" : 5126, "count" : 648, "type" : "VEC2", "max" : [0.9722219705581665, -0], "min" : [-0.02777799963951111, -1], "name" : "TEXCOORD_0"}, {"bufferView" : 0, "byteOffset" : 9792, "componentType" : 5123, "count" : 1296, "type" : "SCALAR", "max" : [1295], "min" : [0]}, {"bufferView" : 4, "byteOffset" : 0, "componentType" : 5126, "count" : 1296, "type" : "VEC3", "max" : [12.306262016296387, -0.2848289906978607, -16.683788299560547], "min" : [9.292914390563965, -2.780447006225586, -19.651355743408203], "name" : "POSITION"}, {"bufferView" : 4, "byteOffset" : 12, "componentType" : 5126, "count" : 1296, "type" : "VEC3", "max" : [1.0000044107437134, 1.0000044107437134, 0.9848121404647827], "min" : [-1.0000044107437134, -1.0000044107437134, -0.9848121404647827], "name" : "NORMAL"}, {"bufferView" : 4, "byteOffset" : 24, "componentType" : 5126, "count" : 1296, "type" : "VEC2", "max" : [0.9722219705581665, -0], "min" : [-0.02777799963951111, -1], "name" : "TEXCOORD_0"}], "asset" : {"generator" : "Aspose.3D 23.4.0", "version" : "2.0"}, "buffers" : [{"uri" : "data:application/octet-stream;base64,", "byteLength" : 210548}], "bufferViews" : [{"buffer" : 0, "byteOffset" : 0, "byteLength" : 12384, "target" : 34963}, {"buffer" : 0, "byteOffset" : 12388, "byteLength" : 115200, "byteStride" : 32, "target" : 34962}, {"buffer" : 0, "byteOffset" : 127592, "byteLength" : 20736, "byteStride" : 32, "target" : 34962}, {"buffer" : 0, "byteOffset" : 148332, "byteLength" : 20736, "byteStride" : 32, "target" : 34962}, {"buffer" : 0, "byteOffset" : 169072, "byteLength" : 41472, "byteStride" : 32, "target" : 34962}], "materials" : [{"name" : "lambert1", "pbrMetallicRoughness" : {"baseColorFactor" : [0.5, 0.5, 0.5, 1], "metallicFactor" : 0, "roughnessFactor" : 0}, "emissiveFactor" : [0, 0, 0], "alphaMode" : "OPAQUE", "doubleSided" : false}, {"name" : "lambert1", "pbrMetallicRoughness" : {"baseColorFactor" : [0.5, 0.5, 0.5, 1], "metallicFactor" : 0, "roughnessFactor" : 0}, "emissiveFactor" : [0, 0, 0], "alphaMode" : "OPAQUE", "doubleSided" : false}, {"name" : "lambert1", "pbrMetallicRoughness" : {"baseColorFactor" : [0.5, 0.5, 0.5, 1], "metallicFactor" : 0, "roughnessFactor" : 0}, "emissiveFactor" : [0, 0, 0], "alphaMode" : "OPAQUE", "doubleSided" : false}, {"name" : "lambert1", "pbrMetallicRoughness" : {"baseColorFactor" : [0.5, 0.5, 0.5, 1], "metallicFactor" : 0, "roughnessFactor" : 0}, "emissiveFactor" : [0, 0, 0], "alphaMode" : "OPAQUE", "doubleSided" : false}], "meshes" : [{"primitives" : [{"attributes" : {"POSITION" : 1, "NORMAL" : 2, "TEXCOORD_0" : 3}, "indices" : 0, "material" : 0, "mode" : 4}], "name" : ""}, {"primitives" : [{"attributes" : {"POSITION" : 5, "NORMAL" : 6, "TEXCOORD_0" : 7}, "indices" : 4, "material" : 1, "mode" : 4}], "name" : ""}, {"primitives" : [{"attributes" : {"POSITION" : 9, "NORMAL" : 10, "TEXCOORD_0" : 11}, "indices" : 8, "material" : 2, "mode" : 4}], "name" : ""}, {"primitives" : [{"attributes" : {"POSITION" : 13, "NORMAL" : 14, "TEXCOORD_0" : 15}, "indices" : 12, "material" : 3, "mode" : 4}], "name" : ""}], "nodes" : [{"mesh" : 0, "name" : "Box01"}, {"mesh" : 1, "name" : "Cylinder01"}, {"mesh" : 2, "name" : "Cylinder02"}, {"mesh" : 3, "name" : "Cylinder12"}], "scene" : 0, "scenes" : [{"nodes" : [0, 1, 2, 3]}]}