{"accessors" : [{"bufferView" : 0, "byteOffset" : 0, "componentType" : 5123, "count" : 468, "type" : "SCALAR", "max" : [391], "min" : [0]}, {"bufferView" : 1, "byteOffset" : 0, "componentType" : 5126, "count" : 392, "type" : "VEC3", "max" : [27.2930850982666, 30.638385772705078, 92.9370346069336], "min" : [-27.2930850982666, 21.169580459594727, 37.35948944091797], "name" : "POSITION"}, {"bufferView" : 1, "byteOffset" : 12, "componentType" : 5126, "count" : 392, "type" : "VEC2", "max" : [1, -0], "min" : [0, -1], "name" : "TEXCOORD_0"}, {"bufferView" : 1, "byteOffset" : 20, "componentType" : 5126, "count" : 392, "type" : "VEC3", "max" : [1.0000044107437134, 1.0000044107437134, 1.0000044107437134], "min" : [-1.0000044107437134, -0.9999454021453857, -1.0000044107437134], "name" : "NORMAL"}, {"bufferView" : 0, "byteOffset" : 936, "componentType" : 5123, "count" : 2235, "type" : "SCALAR", "max" : [1907], "min" : [0]}, {"bufferView" : 2, "byteOffset" : 0, "componentType" : 5126, "count" : 1908, "type" : "VEC3", "max" : [28.105920791625977, 31.630056381225586, 93.0771255493164], "min" : [-28.104921340942383, 10.436152458190918, -93.08008575439453], "name" : "POSITION"}, {"bufferView" : 2, "byteOffset" : 12, "componentType" : 5126, "count" : 1908, "type" : "VEC2", "max" : [1, -0], "min" : [0, -1], "name" : "TEXCOORD_0"}, {"bufferView" : 2, "byteOffset" : 20, "componentType" : 5126, "count" : 1908, "type" : "VEC3", "max" : [1.0000044107437134, 1.0000044107437134, 1.0000044107437134], "min" : [-1.0000044107437134, -1.0000044107437134, -0.9976760149002075], "name" : "NORMAL"}, {"bufferView" : 0, "byteOffset" : 5408, "componentType" : 5123, "count" : 780, "type" : "SCALAR", "max" : [629], "min" : [0]}, {"bufferView" : 3, "byteOffset" : 0, "componentType" : 5126, "count" : 630, "type" : "VEC3", "max" : [22.55217742919922, 31.5856990814209, -40.86003875732422], "min" : [-22.55217742919922, 10.433684349060059, -85.96439361572266], "name" : "POSITION"}, {"bufferView" : 3, "byteOffset" : 12, "componentType" : 5126, "count" : 630, "type" : "VEC2", "max" : [1, -0.35752856731414795], "min" : [0, -0.6887598633766174], "name" : "TEXCOORD_0"}, {"bufferView" : 3, "byteOffset" : 20, "componentType" : 5126, "count" : 630, "type" : "VEC3", "max" : [1.0000044107437134, 0.5811041593551636, 1.0000044107437134], "min" : [-1.0000044107437134, -0.08109301328659058, -1.0000044107437134], "name" : "NORMAL"}, {"bufferView" : 0, "byteOffset" : 6968, "componentType" : 5123, "count" : 2235, "type" : "SCALAR", "max" : [1907], "min" : [0]}, {"bufferView" : 4, "byteOffset" : 0, "componentType" : 5126, "count" : 1908, "type" : "VEC3", "max" : [28.105920791625977, 31.630056381225586, 93.0771255493164], "min" : [-28.104921340942383, 10.436152458190918, -93.08008575439453], "name" : "POSITION"}, {"bufferView" : 4, "byteOffset" : 12, "componentType" : 5126, "count" : 1908, "type" : "VEC2", "max" : [1, -0], "min" : [0, -1], "name" : "TEXCOORD_0"}, {"bufferView" : 4, "byteOffset" : 20, "componentType" : 5126, "count" : 1908, "type" : "VEC3", "max" : [1.0000044107437134, 1.0000044107437134, 1.0000044107437134], "min" : [-1.0000044107437134, -1.0000044107437134, -0.9976760149002075], "name" : "NORMAL"}, {"bufferView" : 0, "byteOffset" : 11440, "componentType" : 5123, "count" : 780, "type" : "SCALAR", "max" : [629], "min" : [0]}, {"bufferView" : 5, "byteOffset" : 0, "componentType" : 5126, "count" : 630, "type" : "VEC3", "max" : [22.55217742919922, 31.5856990814209, -40.86003875732422], "min" : [-22.55217742919922, 10.433684349060059, -85.96439361572266], "name" : "POSITION"}, {"bufferView" : 5, "byteOffset" : 12, "componentType" : 5126, "count" : 630, "type" : "VEC2", "max" : [1, -0.35752856731414795], "min" : [0, -0.6887598633766174], "name" : "TEXCOORD_0"}, {"bufferView" : 5, "byteOffset" : 20, "componentType" : 5126, "count" : 630, "type" : "VEC3", "max" : [1.0000044107437134, 0.5811041593551636, 1.0000044107437134], "min" : [-1.0000044107437134, -0.08109301328659058, -1.0000044107437134], "name" : "NORMAL"}], "asset" : {"generator" : "Aspose.3D 23.2", "version" : "2.0"}, "buffers" : [{"uri" : "data:application/octet-stream;base64,", "byteLength" : 220960}], "bufferViews" : [{"buffer" : 0, "byteOffset" : 0, "byteLength" : 13000, "target" : 34963}, {"buffer" : 0, "byteOffset" : 13004, "byteLength" : 14976, "byteStride" : 32, "target" : 34962}, {"buffer" : 0, "byteOffset" : 27984, "byteLength" : 71520, "byteStride" : 32, "target" : 34962}, {"buffer" : 0, "byteOffset" : 99508, "byteLength" : 24960, "byteStride" : 32, "target" : 34962}, {"buffer" : 0, "byteOffset" : 124472, "byteLength" : 71520, "byteStride" : 32, "target" : 34962}, {"buffer" : 0, "byteOffset" : 195996, "byteLength" : 24960, "byteStride" : 32, "target" : 34962}], "meshes" : [{"primitives" : [{"attributes" : {"POSITION" : 1, "TEXCOORD_0" : 2, "NORMAL" : 3}, "indices" : 0, "mode" : 4}], "name" : ""}, {"primitives" : [{"attributes" : {"POSITION" : 5, "TEXCOORD_0" : 6, "NORMAL" : 7}, "indices" : 4, "mode" : 4}], "name" : ""}, {"primitives" : [{"attributes" : {"POSITION" : 9, "TEXCOORD_0" : 10, "NORMAL" : 11}, "indices" : 8, "mode" : 4}], "name" : ""}, {"primitives" : [{"attributes" : {"POSITION" : 13, "TEXCOORD_0" : 14, "NORMAL" : 15}, "indices" : 12, "mode" : 4}], "name" : ""}, {"primitives" : [{"attributes" : {"POSITION" : 17, "TEXCOORD_0" : 18, "NORMAL" : 19}, "indices" : 16, "mode" : 4}], "name" : ""}], "nodes" : [{"mesh" : 0, "name" : "Inner"}, {"mesh" : 1, "name" : "Cube.1"}, {"mesh" : 2, "name" : "Cylinder"}, {"mesh" : 3, "name" : "Cube.1_1"}, {"mesh" : 4, "name" : "Cylinder_1"}], "scene" : 0, "scenes" : [{"nodes" : [0, 1, 2, 3, 4]}]}